<?xml version="1.0" encoding="UTF-8"?>
<svg xmlns="http://www.w3.org/2000/svg" xmlns:xlink="http://www.w3.org/1999/xlink" version="1.1" id="Capa_1" x="0px" y="0px" viewBox="0 0 509.278 509.278" style="enable-background:new 0 0 509.278 509.278;" xml:space="preserve" width="512" height="512">
<g>
	<g>
		<path style="fill:#E79D8E;" d="M393.508,190.167c-1.992,0.859-4.377,1.956-6.565,3.14l-86.207-85.738&#10;&#9;&#9;&#9;c-6.732-5.593-16.497-5.588-23.223,0.012l-27.902,23.226l-23.365-23.238c-6.732-5.593-16.496-5.588-23.222,0.012L58.669,227.743&#10;&#9;&#9;&#9;c-4.145,3.451-6.542,8.564-6.542,13.958v58.292l10.289,21.289l-10.289,19.165v42.293l10.75,11.522h330.631V190.167z"/>
		<path style="fill:#C37777;" d="M250.262,130.266l-0.651,0.542l-23.365-23.238c-6.732-5.593-16.496-5.588-23.222,0.012&#10;&#9;&#9;&#9;l-77.622,64.613H292.19C278.214,158.218,264.238,144.242,250.262,130.266z"/>
		<path style="fill:#C37777;" d="M391.392,215.406H85.431v-9.94l-26.762,22.277c-4.145,3.451-6.542,8.564-6.542,13.958v15.999&#10;&#9;&#9;&#9;h339.265V215.406z"/>
		<polygon style="fill:#C37777;" points="391.392,307.529 377.466,299.992 52.127,299.992 52.127,340.446 377.466,340.446 &#10;&#9;&#9;&#9;391.392,333.686 &#9;&#9;"/>
		<rect x="52.127" y="382.739" style="fill:#BA5677;" width="399.829" height="53.428"/>
		<polygon style="fill:#BA5677;" points="377.466,299.902 377.466,340.446 415.059,347.716 451.956,340.446 451.956,299.819 &#10;&#9;&#9;&#9;415.059,290.909 &#9;&#9;"/>
		<polygon style="fill:#DF768F;" points="451.956,299.819 451.956,256.373 377.466,256.373 377.466,299.902 &#9;&#9;"/>
		<polygon style="fill:#DF768F;" points="451.956,383.892 451.956,340.446 377.466,340.446 377.466,383.975 &#9;&#9;"/>
		<polygon style="fill:#FFC8B7;" points="381.85,158.784 389.651,152.43 350.976,120.392 324.845,107.894 264.541,107.894 &#10;&#9;&#9;&#9;288.705,158.784 &#9;&#9;"/>
		<polygon style="fill:#FFC8B7;" points="384.261,243.723 471.364,243.723 481.9,234.538 484.303,230.838 442.575,196.271 &#10;&#9;&#9;&#9;422.897,190.27 362.294,190.27 &#9;&#9;"/>
		<path style="fill:#FFA785;" d="M217.155,120.392h133.821l-47.684-39.501c-4.245-3.517-9.473-5.208-14.663-5.077l-71.474-0.006&#10;&#9;&#9;&#9;V120.392z"/>
		<polygon style="fill:#FFA785;" points="327.758,196.271 442.575,196.271 389.651,152.43 306.488,152.43 &#9;&#9;"/>
		<path style="fill:#FFA785;" d="M488.77,234.538l-4.467-3.701h-88.376v38.939c1.379,0.264,2.774,3.904,4.169,3.904h74.556&#10;&#9;&#9;&#9;c6.358,0,12.668-2.728,17.041-8.007C499.484,256.269,498.175,242.329,488.77,234.538z"/>
		<path style="fill:#FFDDB6;" d="M245.6,391.053l6.442-8.315v-89.049c0-5.72-4.637-10.357-10.357-10.357h-53.775&#10;&#9;&#9;&#9;c-5.72,0-10.357,4.637-10.357,10.357v89.049l3.164,8.315H245.6z"/>
		<rect x="177.552" y="382.739" style="fill:#FFA7B8;" width="74.49" height="50.422"/>
		<path style="fill:#98E8F2;" d="M328.761,350.609h-23.226c-5.962,0-10.795-4.833-10.795-10.795v-44.628&#10;&#9;&#9;&#9;c0-5.962,4.833-10.795,10.795-10.795h23.226c5.962,0,10.795,4.833,10.795,10.795v44.628&#10;&#9;&#9;&#9;C339.557,345.776,334.723,350.609,328.761,350.609z"/>
		<path style="fill:#98E8F2;" d="M124.058,350.609h-23.226c-5.962,0-10.795-4.833-10.795-10.795v-44.628&#10;&#9;&#9;&#9;c0-5.962,4.833-10.795,10.795-10.795h23.226c5.962,0,10.795,4.833,10.795,10.795v44.628&#10;&#9;&#9;&#9;C134.853,345.776,130.02,350.609,124.058,350.609z"/>
		<path style="fill:#FFFFFF;" d="M435.975,438.139l-12.418-6.958H43.873c-14.536,0-26.934,8.934-31.74,21.481&#10;&#9;&#9;&#9;c-1.379,3.6,1.281,11.567,1.281,11.567s6.477,10.229,8.718,14.643h413.843V438.139z"/>
		<path style="fill:#FFC0FE;" d="M465.405,431.182h-41.848c1.437,3.341,2.233,7.009,2.233,10.86l0,0&#10;&#9;&#9;&#9;c0,15.511-12.888,28.085-28.786,28.085H38.786c-12.044,0-22.354-7.219-26.648-17.462c-1.379,3.6-2.137,7.496-2.137,11.566v0&#10;&#9;&#9;&#9;c0,18.252,15.165,33.048,33.873,33.048h421.531c18.708,0,33.873-14.796,33.873-33.048v0&#10;&#9;&#9;&#9;C499.278,445.978,484.112,431.182,465.405,431.182z"/>
		<path style="fill:#FFDDB6;" d="M400.096,273.681c-4.97,0-9.969-1.667-14.095-5.084L214.744,126.729L46.355,268.484&#10;&#9;&#9;&#9;c-9.343,7.866-23.293,6.668-31.158-2.676c-7.865-9.343-6.667-23.293,2.676-31.158L200.389,81.003&#10;&#9;&#9;&#9;c8.178-6.885,20.113-6.934,28.348-0.112l185.478,153.648c9.405,7.791,10.713,21.731,2.923,31.136&#10;&#9;&#9;&#9;C412.764,270.953,406.454,273.681,400.096,273.681z"/>
		<path style="fill:#FFA785;" d="M380.456,347.716h46.706c12.426,0,22.5,7.544,22.5,20.866c0,14.626-9.52,20.866-21.946,20.866&#10;&#9;&#9;&#9;h-47.26"/>
		<path style="fill:#FFA785;" d="M400.096,389.449h46.706c12.426,0,22.5,9.342,22.5,20.866c0,11.524-10.073,20.866-22.5,20.866&#10;&#9;&#9;&#9;h-46.706"/>
		<path style="fill:#FFA785;" d="M350.976,389.449h46.706c12.426,0,22.5,9.342,22.5,20.866c0,11.524-10.073,20.866-22.5,20.866&#10;&#9;&#9;&#9;h-46.706"/>
		<ellipse style="fill:#FFDDB6;" cx="352.371" cy="410.315" rx="21.48" ry="20.866"/>
		<ellipse style="fill:#FFDDB6;" cx="380.456" cy="368.583" rx="21.48" ry="20.866"/>
		<ellipse style="fill:#FFDDB6;" cx="400.096" cy="410.315" rx="21.48" ry="20.866"/>
	</g>
	<g>
		
			<line style="fill:none;stroke:#4E0325;stroke-width:20;stroke-linecap:round;stroke-linejoin:round;stroke-miterlimit:10;" x1="52.127" y1="266.328" x2="52.127" y2="428.771"/>
		
			<line style="fill:none;stroke:#4E0325;stroke-width:20;stroke-linecap:round;stroke-linejoin:round;stroke-miterlimit:10;" x1="377.466" y1="340.446" x2="377.466" y2="266.339"/>
		
			<line style="fill:none;stroke:#4E0325;stroke-width:20;stroke-linecap:round;stroke-linejoin:round;stroke-miterlimit:10;" x1="452.218" y1="381.739" x2="452.218" y2="277.163"/>
		<path style="fill:none;stroke:#4E0325;stroke-width:20;stroke-linecap:round;stroke-linejoin:round;stroke-miterlimit:10;" d="&#10;&#9;&#9;&#9;M400.096,273.681c-4.97,0-9.969-1.667-14.095-5.084L214.744,126.729L46.355,268.484c-9.343,7.866-23.293,6.668-31.158-2.676&#10;&#9;&#9;&#9;c-7.865-9.343-6.667-23.293,2.676-31.158L200.389,81.003c8.178-6.885,20.113-6.934,28.348-0.112l185.478,153.648&#10;&#9;&#9;&#9;c9.405,7.791,10.713,21.731,2.923,31.136C412.764,270.953,406.454,273.681,400.096,273.681z"/>
		<path style="fill:none;stroke:#4E0325;stroke-width:20;stroke-linecap:round;stroke-linejoin:round;stroke-miterlimit:10;" d="&#10;&#9;&#9;&#9;M291.213,75.946c4.157,0.468,8.21,2.115,11.627,4.945l185.478,153.648c9.405,7.791,10.713,21.731,2.923,31.136&#10;&#9;&#9;&#9;c-4.373,5.279-10.683,8.007-17.041,8.007"/>
		<path style="fill:none;stroke:#4E0325;stroke-width:20;stroke-linecap:round;stroke-linejoin:round;stroke-miterlimit:10;" d="&#10;&#9;&#9;&#9;M465.405,497.279H43.873C25.166,497.279,10,482.483,10,464.23v0c0-18.252,15.165-33.049,33.873-33.049h421.532&#10;&#9;&#9;&#9;c18.708,0,33.873,14.796,33.873,33.049v0C499.278,482.483,484.112,497.279,465.405,497.279z"/>
		
			<line style="fill:none;stroke:#4E0325;stroke-width:20;stroke-linecap:round;stroke-linejoin:round;stroke-miterlimit:10;" x1="400.096" y1="273.681" x2="474.199" y2="273.681"/>
		
			<line style="fill:none;stroke:#4E0325;stroke-width:12;stroke-linecap:round;stroke-linejoin:round;stroke-miterlimit:10;" x1="411.191" y1="234.597" x2="485.294" y2="234.597"/>
		
			<line style="fill:none;stroke:#4E0325;stroke-width:12;stroke-linecap:round;stroke-linejoin:round;stroke-miterlimit:10;" x1="371.42" y1="197.066" x2="445.523" y2="197.066"/>
		
			<line style="fill:none;stroke:#4E0325;stroke-width:12;stroke-linecap:round;stroke-linejoin:round;stroke-miterlimit:10;" x1="324.651" y1="157.914" x2="398.754" y2="157.914"/>
		
			<line style="fill:none;stroke:#4E0325;stroke-width:12;stroke-linecap:round;stroke-linejoin:round;stroke-miterlimit:10;" x1="279.169" y1="118.769" x2="353.272" y2="118.769"/>
		
			<line style="fill:none;stroke:#4E0325;stroke-width:20;stroke-linecap:round;stroke-linejoin:round;stroke-miterlimit:10;" x1="217.126" y1="75.807" x2="291.229" y2="75.807"/>
		<path style="fill:none;stroke:#4E0325;stroke-width:12;stroke-linecap:round;stroke-linejoin:round;stroke-miterlimit:10;" d="&#10;&#9;&#9;&#9;M252.042,428.771h-74.49V293.689c0-5.72,4.637-10.357,10.357-10.357h53.775c5.72,0,10.357,4.637,10.357,10.357V428.771z"/>
		
			<line style="fill:none;stroke:#4E0325;stroke-width:12;stroke-linecap:round;stroke-miterlimit:10;" x1="255.522" y1="383.089" x2="362.294" y2="383.089"/>
		
			<line style="fill:none;stroke:#4E0325;stroke-width:12;stroke-linecap:round;stroke-miterlimit:10;" x1="52.127" y1="383.089" x2="170.876" y2="383.089"/>
		
			<line style="fill:none;stroke:#4E0325;stroke-width:12;stroke-linecap:round;stroke-miterlimit:10;" x1="339.557" y1="341.42" x2="452.218" y2="341.42"/>
		
			<line style="fill:none;stroke:#4E0325;stroke-width:12;stroke-linecap:round;stroke-miterlimit:10;" x1="255.522" y1="341.42" x2="294.864" y2="341.42"/>
		
			<line style="fill:none;stroke:#4E0325;stroke-width:12;stroke-linecap:round;stroke-miterlimit:10;" x1="134.721" y1="341.42" x2="170.876" y2="341.42"/>
		
			<line style="fill:none;stroke:#4E0325;stroke-width:12;stroke-linecap:round;stroke-miterlimit:10;" x1="52.127" y1="341.42" x2="90.037" y2="341.42"/>
		
			<line style="fill:none;stroke:#4E0325;stroke-width:12;stroke-linecap:round;stroke-miterlimit:10;" x1="339.557" y1="299.751" x2="452.218" y2="299.751"/>
		
			<line style="fill:none;stroke:#4E0325;stroke-width:12;stroke-linecap:round;stroke-miterlimit:10;" x1="255.522" y1="299.751" x2="294.74" y2="299.751"/>
		
			<line style="fill:none;stroke:#4E0325;stroke-width:12;stroke-linecap:round;stroke-miterlimit:10;" x1="134.853" y1="299.751" x2="174.071" y2="299.751"/>
		
			<line style="fill:none;stroke:#4E0325;stroke-width:12;stroke-linecap:round;stroke-miterlimit:10;" x1="52.127" y1="299.751" x2="90.037" y2="299.751"/>
		
			<line style="fill:none;stroke:#4E0325;stroke-width:12;stroke-linecap:round;stroke-miterlimit:10;" x1="58.711" y1="258.082" x2="373.309" y2="258.082"/>
		
			<line style="fill:none;stroke:#4E0325;stroke-width:12;stroke-linecap:round;stroke-miterlimit:10;" x1="112.254" y1="216.413" x2="323.007" y2="216.413"/>
		
			<line style="fill:none;stroke:#4E0325;stroke-width:12;stroke-linecap:round;stroke-miterlimit:10;" x1="157.7" y1="174.744" x2="271.191" y2="174.744"/>
		<path style="fill:none;stroke:#4E0325;stroke-width:12;stroke-linecap:round;stroke-miterlimit:10;" d="M328.761,350.609h-23.226&#10;&#9;&#9;&#9;c-5.962,0-10.795-4.833-10.795-10.795v-44.628c0-5.962,4.833-10.795,10.795-10.795h23.226c5.962,0,10.795,4.833,10.795,10.795&#10;&#9;&#9;&#9;v44.628C339.557,345.776,334.723,350.609,328.761,350.609z"/>
		<path style="fill:none;stroke:#4E0325;stroke-width:12;stroke-linecap:round;stroke-miterlimit:10;" d="M124.058,350.609h-23.226&#10;&#9;&#9;&#9;c-5.962,0-10.795-4.833-10.795-10.795v-44.628c0-5.962,4.833-10.795,10.795-10.795h23.226c5.962,0,10.795,4.833,10.795,10.795&#10;&#9;&#9;&#9;v44.628C134.853,345.776,130.02,350.609,124.058,350.609z"/>
		
			<line style="fill:none;stroke:#4E0325;stroke-width:12;stroke-linecap:round;stroke-linejoin:round;stroke-miterlimit:10;" x1="200.327" y1="364.161" x2="200.327" y2="349.622"/>
		<path style="fill:none;stroke:#4E0325;stroke-width:12;stroke-linecap:round;stroke-linejoin:round;stroke-miterlimit:10;" d="&#10;&#9;&#9;&#9;M411.034,385.963h35.768c12.426,0,22.5,9.342,22.5,20.866c0,11.524-10.073,20.866-22.5,20.866h-46.706"/>
		
			<ellipse style="fill:none;stroke:#4E0325;stroke-width:12;stroke-linecap:round;stroke-linejoin:round;stroke-miterlimit:10;" cx="399.096" cy="406.351" rx="21.48" ry="20.866"/>
		<path style="fill:none;stroke:#4E0325;stroke-width:12;stroke-linecap:round;stroke-linejoin:round;stroke-miterlimit:10;" d="&#10;&#9;&#9;&#9;M382.748,345.675h42.414c12.426,0,22.5,7.544,22.5,20.866c0,11.524-10.073,18.943-22.5,18.943h-36.043"/>
		
			<ellipse style="fill:none;stroke:#4E0325;stroke-width:12;stroke-linecap:round;stroke-linejoin:round;stroke-miterlimit:10;" cx="379.456" cy="366.541" rx="21.48" ry="20.866"/>
		
			<ellipse style="fill:none;stroke:#4E0325;stroke-width:12;stroke-linecap:round;stroke-linejoin:round;stroke-miterlimit:10;" cx="352.371" cy="406.351" rx="21.48" ry="20.866"/>
	</g>
	<g>
		<path style="fill:#FFC8B7;" d="M475.134,54.177l8.214,23.098c0.352,0.989,1.048,1.773,1.927,2.169l20.521,9.246&#10;&#9;&#9;&#9;c2.899,1.306,2.899,5.925,0,7.232l-20.521,9.246c-0.879,0.396-1.575,1.179-1.927,2.168l-8.214,23.098&#10;&#9;&#9;&#9;c-1.161,3.263-5.265,3.263-6.425,0l-8.214-23.098c-0.352-0.989-1.048-1.773-1.927-2.168l-20.521-9.246&#10;&#9;&#9;&#9;c-2.899-1.306-2.899-5.925,0-7.232l20.521-9.246c0.879-0.396,1.575-1.18,1.927-2.169l8.214-23.098&#10;&#9;&#9;&#9;C469.869,50.914,473.973,50.914,475.134,54.177z"/>
		<path style="fill:#FFC8B7;" d="M94.831,3.814l6.093,17.133c0.261,0.734,0.777,1.315,1.429,1.609l15.222,6.858&#10;&#9;&#9;&#9;c2.151,0.969,2.151,4.395,0,5.364l-15.222,6.858c-0.652,0.294-1.168,0.875-1.429,1.609l-6.093,17.133&#10;&#9;&#9;&#9;c-0.861,2.42-3.905,2.42-4.766,0l-6.093-17.133c-0.261-0.734-0.777-1.315-1.429-1.609l-15.222-6.858&#10;&#9;&#9;&#9;c-2.15-0.969-2.15-4.395,0-5.364l15.222-6.858c0.652-0.294,1.168-0.875,1.429-1.609l6.093-17.133&#10;&#9;&#9;&#9;C90.926,1.394,93.971,1.394,94.831,3.814z"/>
		<circle style="fill:#FFA785;" cx="390.259" cy="32.097" r="17.937"/>
		<circle style="fill:#FFA785;" cx="27.925" cy="126.042" r="7.737"/>
	</g>
</g>















</svg>
