<?xml version="1.0" encoding="UTF-8" standalone="no"?>
<!-- Created with Inkscape (http://www.inkscape.org/) -->

<svg
   width="100%"
   height="100%"
   viewBox="0 0 30.161481 36.124293"
   version="1.1"
   id="svg1"
   xml:space="preserve"
   inkscape:export-filename="ah.svg"
   inkscape:export-xdpi="1"
   inkscape:export-ydpi="1"
   inkscape:version="1.3.2 (091e20e, 2023-11-25, custom)"
   sodipodi:docname="6c.svg"
   xmlns:inkscape="http://www.inkscape.org/namespaces/inkscape"
   xmlns:sodipodi="http://sodipodi.sourceforge.net/DTD/sodipodi-0.dtd"
   xmlns="http://www.w3.org/2000/svg"
   xmlns:svg="http://www.w3.org/2000/svg"><sodipodi:namedview
     id="namedview1"
     pagecolor="#ffffff"
     bordercolor="#000000"
     borderopacity="0.25"
     inkscape:showpageshadow="2"
     inkscape:pageopacity="0.0"
     inkscape:pagecheckerboard="0"
     inkscape:deskcolor="#d1d1d1"
     inkscape:document-units="mm"
     inkscape:export-bgcolor="#ffffff00"
     inkscape:zoom="5.6568542"
     inkscape:cx="61.783455"
     inkscape:cy="69.384853"
     inkscape:window-width="1920"
     inkscape:window-height="1027"
     inkscape:window-x="2152"
     inkscape:window-y="319"
     inkscape:window-maximized="1"
     inkscape:current-layer="layer1"
     inkscape:clip-to-page="false" /><defs
     id="defs1"><clipPath
       id="a"><path
         d="M0 38h38V0H0v38Z"
         id="path1" /></clipPath></defs><g
     inkscape:label="Layer 1"
     inkscape:groupmode="layer"
     id="layer1"
     transform="translate(-5.3966856,-10.604133)"><text
       xml:space="preserve"
       style="font-style:normal;font-variant:normal;font-weight:bold;font-stretch:normal;font-size:9.52974px;line-height:10;font-family:Calibri;-inkscape-font-specification:'Calibri Bold';fill:#000000;fill-opacity:1;stroke-width:0.066179"
       x="7.5655551"
       y="17.713961"
       id="text4"
       transform="scale(0.93102397,1.0740862)"><tspan
         sodipodi:role="line"
         id="tspan4"
         style="fill:#000000;fill-opacity:1;stroke-width:0.066179"
         x="7.5655551"
         y="17.713961">6</tspan></text><path
       style="fill:#000000;fill-opacity:1;stroke:none;stroke-width:0.111781"
       d="m 15.416418,42.229353 c 0.0049,-0.238385 0.270483,-0.378816 1.173689,-0.620519 1.357588,-0.363323 1.82881,-0.588818 2.455595,-1.175099 1.098242,-1.02728 1.70529,-2.372167 1.786065,-3.956953 0.04126,-0.80938 0.0271,-0.93052 -0.0886,-0.758483 -0.07573,0.112604 -0.332875,0.497893 -0.571423,0.856195 -0.890931,1.338182 -2.509723,2.185711 -3.953427,2.069823 -1.322434,-0.106146 -2.474732,-0.90271 -3.035211,-2.098187 -0.244234,-0.520939 -0.401742,-0.744972 -0.401673,-1.621202 6.5e-5,-0.815952 0.164091,-1.115551 0.349624,-1.517143 0.314295,-0.680294 1.040151,-1.442335 1.685201,-1.769206 0.470604,-0.238474 0.629547,-0.264339 1.342101,-0.218406 0.492718,0.03177 1.012664,0.142161 1.331793,0.282777 0.287932,0.12687 0.543931,0.210255 0.568885,0.185301 0.02496,-0.02496 -0.113794,-0.351252 -0.308333,-0.725105 -0.323288,-0.621277 -0.403925,-1.084829 -0.354836,-1.642952 0.07995,-0.908931 0.372267,-1.907629 1.036051,-2.533679 0.694222,-0.654758 1.470966,-0.972806 2.708672,-0.926797 1.151521,0.04281 1.82,0.393241 2.441846,1.018628 0.608347,0.611812 0.911065,1.534672 0.982935,2.39446 0.04799,0.574108 -0.0338,0.983992 -0.381786,1.685634 -0.209983,0.423393 -0.348245,0.769804 -0.307251,0.769804 0.04099,0 0.357282,-0.131473 0.70286,-0.292164 1.616084,-0.751464 3.46921,-0.02355 4.252455,1.670381 0.187956,0.406491 0.340376,0.695105 0.339684,1.618467 -8.03e-4,0.977921 -0.146903,1.193202 -0.376786,1.658879 -0.72694,1.472564 -2.412169,2.32225 -3.95123,1.992178 -1.310304,-0.281006 -2.412265,-1.071779 -3.21894,-2.309909 -0.25048,-0.38445 -0.477674,-0.699002 -0.504877,-0.699002 -0.07901,0 0.08014,1.382571 0.243316,2.113735 0.317793,1.423994 1.26367,2.716732 2.462247,3.365152 0.45856,0.248074 1.392511,0.546563 2.413154,0.771245 0.159032,0.035 0.306018,0.15562 0.33781,0.277194 0.05586,0.213591 0.01376,0.215222 -5.552482,0.215222 -3.084819,0 -5.608025,-0.03611 -5.607123,-0.08027 z"
       id="path5891"
       inkscape:connector-curvature="0"
       sodipodi:nodetypes="ccssssssssssscsaasaasssscssssssscsc" /><path
       style="fill:#000000;fill-opacity:1;stroke:none;stroke-width:0.0342357"
       d="m 7.4588238,24.86525 c 0.0015,-0.07301 0.082842,-0.11602 0.3594712,-0.190049 0.4157947,-0.111276 0.5601182,-0.180339 0.7520865,-0.359903 0.3363636,-0.314629 0.5222871,-0.726535 0.5470261,-1.211914 0.012642,-0.247893 0.00834,-0.284995 -0.027136,-0.232304 -0.023194,0.03448 -0.1019513,0.152492 -0.1750123,0.26223 -0.2728688,0.409852 -0.7686639,0.66943 -1.2108336,0.633935 -0.4050282,-0.03251 -0.757948,-0.276476 -0.9296085,-0.642621 -0.074803,-0.15955 -0.1230434,-0.228167 -0.1230222,-0.496534 1.99e-5,-0.249906 0.050258,-0.341664 0.1070813,-0.464662 0.096261,-0.208356 0.318572,-0.441751 0.5161345,-0.541863 0.144134,-0.07304 0.1928142,-0.08095 0.4110515,-0.06689 0.150907,0.0097 0.3101533,0.04355 0.4078944,0.0866 0.088187,0.03886 0.1665923,0.0644 0.174235,0.05676 0.00764,-0.0076 -0.034852,-0.107585 -0.094435,-0.222082 -0.099015,-0.190281 -0.123712,-0.332255 -0.108677,-0.503194 0.024487,-0.278384 0.114016,-0.584259 0.3173162,-0.776001 0.2126227,-0.200537 0.4505196,-0.297946 0.8295976,-0.283856 0.3526815,0.01311 0.5574195,0.120439 0.7478752,0.31198 0.1863213,0.187384 0.2790363,0.470032 0.3010483,0.733362 0.0147,0.175836 -0.01037,0.301373 -0.116931,0.516268 -0.06431,0.129674 -0.106658,0.235771 -0.09411,0.235771 0.01256,0 0.109426,-0.04027 0.215268,-0.08948 0.494967,-0.230155 1.062532,-0.0073 1.30242,0.511594 0.05757,0.124498 0.104254,0.212894 0.104034,0.495696 -2.46e-4,0.299513 -0.04499,0.365448 -0.115401,0.508073 -0.222643,0.451009 -0.738785,0.711247 -1.210162,0.610153 C 9.9447217,23.660259 9.6072193,23.418064 9.3601559,23.038856 9.2834349,22.921109 9.2138556,22.82477 9.2055244,22.82477 c -0.024201,0 0.024549,0.423447 0.074521,0.647383 0.097332,0.436134 0.3870298,0.832067 0.7541246,1.030661 0.140445,0.07598 0.426491,0.167398 0.739087,0.236213 0.04871,0.0107 0.09372,0.04766 0.10346,0.0849 0.0171,0.06542 0.0042,0.06591 -1.7005841,0.06591 -0.9448018,0 -1.7175959,-0.01105 -1.7173197,-0.02459 z"
       id="path5891-5"
       inkscape:connector-curvature="0"
       sodipodi:nodetypes="ccssssssssssscsaasaasssscssssssscsc" /></g></svg>
