<?xml version="1.0" encoding="UTF-8" standalone="no"?>
<!-- Created with Inkscape (http://www.inkscape.org/) -->

<svg
   width="100%"
   height="100%"
   viewBox="0 0 30.161481 36.124293"
   version="1.1"
   id="svg1"
   xml:space="preserve"
   inkscape:export-filename="ah.svg"
   inkscape:export-xdpi="1"
   inkscape:export-ydpi="1"
   inkscape:version="1.3.2 (091e20e, 2023-11-25, custom)"
   sodipodi:docname="7h.svg"
   xmlns:inkscape="http://www.inkscape.org/namespaces/inkscape"
   xmlns:sodipodi="http://sodipodi.sourceforge.net/DTD/sodipodi-0.dtd"
   xmlns="http://www.w3.org/2000/svg"
   xmlns:svg="http://www.w3.org/2000/svg"><sodipodi:namedview
     id="namedview1"
     pagecolor="#ffffff"
     bordercolor="#000000"
     borderopacity="0.25"
     inkscape:showpageshadow="2"
     inkscape:pageopacity="0.0"
     inkscape:pagecheckerboard="0"
     inkscape:deskcolor="#d1d1d1"
     inkscape:document-units="mm"
     inkscape:export-bgcolor="#ffffff00"
     inkscape:zoom="5.6568542"
     inkscape:cx="36.857941"
     inkscape:cy="60.369242"
     inkscape:window-width="1080"
     inkscape:window-height="1867"
     inkscape:window-x="1072"
     inkscape:window-y="-8"
     inkscape:window-maximized="1"
     inkscape:current-layer="layer1"
     inkscape:clip-to-page="false" /><defs
     id="defs1"><clipPath
       id="a"><path
         d="M0 38h38V0H0v38Z"
         id="path1" /></clipPath></defs><g
     inkscape:label="Layer 1"
     inkscape:groupmode="layer"
     id="layer1"
     transform="translate(-5.3966856,-10.604133)"><text
       xml:space="preserve"
       style="font-size:38.1px;line-height:10;white-space:pre;inline-size:51.0067;display:inline;fill:#000000;stroke-width:0.264583"
       x="36.512501"
       y="29.104166"
       id="text1"
       transform="matrix(0.28366057,0,0,0.28366057,-4.017236,10.896766)"><tspan
         x="36.512501"
         y="29.104166"
         id="tspan3"><tspan
           style="font-weight:bold;font-family:Calibri;-inkscape-font-specification:'Calibri Bold';fill:#d40000"
           id="tspan2">7</tspan></tspan></text><path
       fill="#dd2e44"
       d="m 13.233051,30.979494 c 0,-4.352206 6.026512,-5.965178 7.880863,-0.926927 1.854348,-5.038251 7.880862,-3.425279 7.880862,0.926927 0,4.728617 -7.880862,10.723968 -7.880862,10.723968 0,0 -7.880863,-5.995351 -7.880863,-10.723968"
       id="path2"
       style="stroke-width:0.494625"
       clip-path="url(#clipPath3)" /><path
       fill="#dd2e44"
       d="m 6.5211642,21.525258 c 0,-1.429883 1.9799638,-1.959812 2.5891958,-0.304534 0.6092318,-1.655278 2.589195,-1.125349 2.589195,0.304534 0,1.553551 -2.589195,3.523276 -2.589195,3.523276 0,0 -2.5891958,-1.969725 -2.5891958,-3.523276"
       id="path2-2"
       style="stroke-width:0.162505"
       clip-path="url(#clipPath3)" /></g></svg>
