<?xml version="1.0" encoding="UTF-8" standalone="no"?>
<!-- Created with Inkscape (http://www.inkscape.org/) -->

<svg
   width="100%"
   height="100%"
   viewBox="0 0 30.161481 36.124293"
   version="1.1"
   id="svg1"
   xml:space="preserve"
   inkscape:export-filename="ah.svg"
   inkscape:export-xdpi="1"
   inkscape:export-ydpi="1"
   inkscape:version="1.3.2 (091e20e, 2023-11-25, custom)"
   sodipodi:docname="8s.svg"
   xmlns:inkscape="http://www.inkscape.org/namespaces/inkscape"
   xmlns:sodipodi="http://sodipodi.sourceforge.net/DTD/sodipodi-0.dtd"
   xmlns="http://www.w3.org/2000/svg"
   xmlns:svg="http://www.w3.org/2000/svg"><sodipodi:namedview
     id="namedview1"
     pagecolor="#ffffff"
     bordercolor="#000000"
     borderopacity="0.25"
     inkscape:showpageshadow="2"
     inkscape:pageopacity="0.0"
     inkscape:pagecheckerboard="0"
     inkscape:deskcolor="#d1d1d1"
     inkscape:document-units="mm"
     inkscape:export-bgcolor="#ffffff00"
     inkscape:zoom="5.6568542"
     inkscape:cx="67.970639"
     inkscape:cy="52.591067"
     inkscape:window-width="1920"
     inkscape:window-height="1027"
     inkscape:window-x="2152"
     inkscape:window-y="319"
     inkscape:window-maximized="1"
     inkscape:current-layer="layer1"
     inkscape:clip-to-page="false" /><defs
     id="defs1"><clipPath
       id="a"><path
         d="M0 38h38V0H0v38Z"
         id="path1" /></clipPath></defs><g
     inkscape:label="Layer 1"
     inkscape:groupmode="layer"
     id="layer1"
     transform="translate(-5.3966856,-10.604133)"><text
       xml:space="preserve"
       style="font-style:normal;font-variant:normal;font-weight:bold;font-stretch:normal;font-size:9.52974px;line-height:10;font-family:Calibri;-inkscape-font-specification:'Calibri Bold';fill:#000000;fill-opacity:1;stroke-width:0.066179"
       x="7.7665043"
       y="17.713961"
       id="text4"
       transform="scale(0.93102397,1.0740862)"><tspan
         sodipodi:role="line"
         id="tspan4"
         style="fill:#000000;fill-opacity:1;stroke-width:0.066179"
         x="7.7665043"
         y="17.713961">8</tspan></text><path
       d="m 16.378688,31.589074 c -5.290884,5.405473 -0.144997,9.342417 4.038259,6.761583 0.0228,1.33135 -1.021065,2.574278 -1.663145,3.762756 h 4.516662 c -0.661258,-1.155104 -1.765434,-2.427505 -1.805797,-3.762756 4.270958,2.453512 8.813083,-1.825031 4.074015,-6.761583 -2.47112,-2.711134 -4.015772,-4.820607 -4.597931,-5.537672 -0.531011,0.699159 -1.94558,2.755021 -4.562171,5.537672 z"
       fill-rule="evenodd"
       stroke="#000000"
       stroke-width="0.140178pt"
       id="path1-3" /><path
       d="m 8.3776875,21.517803 c -1.6552263,1.691076 -0.04536,2.922729 1.2633485,2.115328 0.00713,0.416505 -0.3194349,0.80535 -0.5203059,1.177158 H 10.533744 C 10.326874,24.448922 9.9814377,24.050857 9.9688103,23.633131 11.304957,24.400699 12.725939,23.062179 11.243344,21.517803 10.470268,20.669639 9.9870313,20.009702 9.8049056,19.785371 9.6387818,20.0041 9.1962407,20.647266 8.3776536,21.517803 Z"
       fill-rule="evenodd"
       stroke="#000000"
       stroke-width="0.043854pt"
       id="path1-3-3" /></g></svg>
