<?xml version="1.0" encoding="UTF-8" standalone="no"?>
<!-- Created with Inkscape (http://www.inkscape.org/) -->

<svg
   width="100%"
   height="100%"
   viewBox="0 0 30.161481 36.124293"
   version="1.1"
   id="svg1"
   xml:space="preserve"
   inkscape:export-filename="ah.svg"
   inkscape:export-xdpi="1"
   inkscape:export-ydpi="1"
   inkscape:version="1.3.2 (091e20e, 2023-11-25, custom)"
   sodipodi:docname="ad.svg"
   xmlns:inkscape="http://www.inkscape.org/namespaces/inkscape"
   xmlns:sodipodi="http://sodipodi.sourceforge.net/DTD/sodipodi-0.dtd"
   xmlns="http://www.w3.org/2000/svg"
   xmlns:svg="http://www.w3.org/2000/svg"><sodipodi:namedview
     id="namedview1"
     pagecolor="#ffffff"
     bordercolor="#000000"
     borderopacity="0.25"
     inkscape:showpageshadow="2"
     inkscape:pageopacity="0.0"
     inkscape:pagecheckerboard="0"
     inkscape:deskcolor="#d1d1d1"
     inkscape:document-units="mm"
     inkscape:export-bgcolor="#ffffff00"
     inkscape:zoom="5.6568542"
     inkscape:cx="48.878756"
     inkscape:cy="83.173435"
     inkscape:window-width="1080"
     inkscape:window-height="1867"
     inkscape:window-x="1072"
     inkscape:window-y="-8"
     inkscape:window-maximized="1"
     inkscape:current-layer="layer1"
     inkscape:clip-to-page="false" /><defs
     id="defs1"><clipPath
       id="a"><path
         d="M0 38h38V0H0v38Z"
         id="path1" /></clipPath></defs><g
     inkscape:label="Layer 1"
     inkscape:groupmode="layer"
     id="layer1"
     transform="translate(-5.3966856,-10.604133)"><text
       xml:space="preserve"
       style="font-size:38.1px;line-height:10;white-space:pre;inline-size:51.0067;display:inline;fill:#000000;stroke-width:0.264583"
       x="36.512501"
       y="29.104166"
       id="text1"
       transform="matrix(0.20099001,0,0,0.26076561,-0.40803315,11.18316)"><tspan
         x="36.512501"
         y="29.104166"
         id="tspan3"><tspan
           style="font-weight:bold;font-family:Calibri;-inkscape-font-specification:'Calibri Bold';fill:#d40000"
           id="tspan2">A</tspan></tspan></text><path
       style="fill:#dd2e44;fill-opacity:1;stroke-width:0.0654416"
       d="m 17.283731,37.841784 -3.795259,-3.795682 3.81183,-3.811831 3.811832,-3.811832 3.81183,3.811832 3.811831,3.811831 -3.795259,3.795682 c -2.087392,2.087624 -3.810173,3.795682 -3.828402,3.795682 -0.01823,0 -1.741012,-1.708058 -3.828403,-3.795682 z"
       id="path3" /><path
       style="fill:#dd2e44;fill-opacity:1;stroke-width:0.0216789"
       d="m 7.9309916,23.78363 -1.257258,-1.257398 1.2627479,-1.262748 1.262748,-1.262748 1.2627465,1.262748 1.262748,1.262748 -1.257258,1.257398 c -0.6914913,0.691569 -1.2621976,1.257398 -1.2682365,1.257398 -0.00605,0 -0.576746,-0.565829 -1.2682379,-1.257398 z"
       id="path3-2" /><path
       style="fill:#dd2e44;fill-opacity:1;stroke-width:0.176777"
       d="m 6.4965436,30.730458 c -0.121534,-0.04904 -0.2209709,-0.283776 -0.2209709,-0.521638 0,-0.23786 1.3213876,-5.382062 2.936417,-11.431559 C 11.43203,10.461543 12.234656,7.7027024 12.501943,7.4688154 c 0.284624,-0.249059 0.687705,-0.3093592 2.067931,-0.3093592 1.106646,0 1.823208,0.079565 2.021342,0.2244445 0.216059,0.1579865 1.194012,3.5210603 3.302779,11.3579023 1.647708,6.123402 2.996453,11.303935 2.99721,11.512293 7.57e-4,0.208359 -0.124453,0.427121 -0.278246,0.486136 -0.533769,0.204826 -3.028019,0.116747 -3.218894,-0.113669 -0.100678,-0.121534 -0.481336,-1.354552 -0.845906,-2.740039 l -0.662854,-2.519068 h -3.499956 -3.499955 l -0.173887,0.662912 c -0.09564,0.364602 -0.383407,1.4976 -0.639488,2.517771 -0.2560804,1.020171 -0.5486106,1.954878 -0.650067,2.077126 -0.1816119,0.218828 -2.4423268,0.300121 -2.9254084,0.105193 z M 16.993114,21.522563 c -0.04931,-0.170148 -0.623392,-2.417422 -1.275728,-4.993942 -0.652336,-2.57652 -1.240598,-4.747008 -1.307249,-4.823305 -0.106066,-0.121418 -2.654487,9.409397 -2.654487,9.927491 0,0.138826 0.806491,0.199115 2.663563,0.199115 2.453033,0 2.656476,-0.02445 2.573901,-0.309359 z"
       id="path4"
       transform="matrix(0.26458333,0,0,0.26458333,5.3966856,10.604133)" /></g></svg>
